<svg width="70" height="70" viewBox="0 0 70 70" fill="none" xmlns="http://www.w3.org/2000/svg">
<path d="M28.0709 62.5988C41.1945 62.5988 51.8332 51.9601 51.8332 38.8365C51.8332 25.713 41.1945 15.0742 28.0709 15.0742C14.9473 15.0742 4.30859 25.713 4.30859 38.8365C4.30859 51.9601 14.9473 62.5988 28.0709 62.5988Z" fill="#FFFCFB"/>
<path d="M28.3388 57.203L28.0374 56.6895C23.4336 48.8454 11.1995 32.1991 11.0759 32.032L10.8994 31.7922L15.0675 27.673L28.2614 36.8859C36.5687 26.1061 44.3188 18.7019 49.3741 14.3782C54.9043 9.64851 58.504 7.47111 58.5403 7.45025L58.6222 7.40125H65.6925L65.0171 8.00271C47.6478 23.4735 28.8213 56.3552 28.6338 56.6856L28.3388 57.203Z" fill="#DCC2C5"/>
<path d="M28.3388 57.203L28.0374 56.6895C23.4336 48.8454 11.1995 32.1991 11.0759 32.032L10.8994 31.7922L15.0675 27.673L28.2614 36.8859C36.5687 26.1061 44.3188 18.7019 49.3741 14.3782C54.9043 9.64851 58.504 7.47111 58.5403 7.45025L58.6222 7.40125H65.6925L65.0171 8.00271C47.6478 23.4735 28.8213 56.3552 28.6338 56.6856L28.3388 57.203Z" fill="url(#paint0_radial_478_1028)"/>
<defs>
<radialGradient id="paint0_radial_478_1028" cx="0" cy="0" r="1" gradientUnits="userSpaceOnUse" gradientTransform="translate(11.9268 51.9116) rotate(-33.338) scale(74.1937 48.6083)">
<stop stop-color="#FA8F21"/>
<stop offset="0.793099" stop-color="#D82D7E"/>
</radialGradient>
</defs>
</svg>
