<svg width="48" height="48" viewBox="0 0 48 48" fill="none" xmlns="http://www.w3.org/2000/svg">
<rect width="48" height="48" rx="24" fill="#D028DE"/>
<path d="M24.3665 39C21.9296 39 19.76 38.6691 17.8578 38.0072C15.9556 37.353 14.3475 36.3906 13.0336 35.1202C11.7196 33.8574 10.7188 32.313 10.0313 30.4873C9.34377 28.6615 9 26.5846 9 24.2568C9 21.9593 9.34377 19.8749 10.0313 18.0034C10.7265 16.132 11.7387 14.5268 13.0679 13.1879C14.3972 11.8414 16.0205 10.8068 17.938 10.0841C19.8631 9.36135 22.0556 9 24.5155 9C26.792 9 28.8241 9.33092 30.6117 9.99277C32.4069 10.6546 33.9271 11.5979 35.1724 12.8227C36.4252 14.0399 37.3763 15.4892 38.0256 17.1704C38.6826 18.844 39.0073 20.6965 38.9997 22.7277C39.0073 24.1274 38.8851 25.4131 38.633 26.5846C38.3809 27.7562 37.9836 28.7794 37.4412 29.6542C36.9065 30.5215 36.2037 31.21 35.3328 31.7197C34.4619 32.2218 33.4077 32.507 32.1701 32.5755C31.2839 32.644 30.5658 32.5793 30.0158 32.3815C29.4658 32.1837 29.0456 31.8908 28.7553 31.5029C28.4727 31.1073 28.2893 30.647 28.2053 30.1221H28.0678C27.8844 30.5785 27.5254 30.9932 26.9906 31.3659C26.4559 31.7311 25.8027 32.0164 25.0311 32.2218C24.2672 32.4196 23.4536 32.4918 22.5904 32.4386C21.6889 32.3853 20.8333 32.1761 20.0236 31.811C19.2214 31.4458 18.5072 30.9171 17.8807 30.2248C17.2619 29.5325 16.773 28.6767 16.414 27.6573C16.0626 26.6379 15.883 25.4587 15.8754 24.1198C15.883 22.7961 16.0702 21.6436 16.4369 20.6622C16.8112 19.6809 17.304 18.8555 17.9151 18.186C18.5339 17.5165 19.2214 16.9916 19.9777 16.6113C20.734 16.2309 21.4941 15.9874 22.2581 15.8809C23.1213 15.7516 23.9387 15.7516 24.7103 15.8809C25.4819 16.0103 26.1312 16.2195 26.6583 16.5086C27.1931 16.7976 27.5254 17.1095 27.6553 17.4443H27.8157V16.1662H31.4023V27.3035C31.41 27.8285 31.5284 28.2355 31.7576 28.5245C31.9868 28.8136 32.2961 28.9582 32.6858 28.9582C33.2129 28.9582 33.6521 28.7261 34.0035 28.2621C34.3626 27.798 34.63 27.0867 34.8057 26.1282C34.989 25.1696 35.0807 23.9487 35.0807 22.4652C35.0807 21.035 34.8897 19.7798 34.5077 18.6995C34.1334 17.6116 33.6063 16.6873 32.9264 15.9266C32.2541 15.1582 31.4711 14.5344 30.5773 14.0552C29.6835 13.5759 28.7133 13.2259 27.6667 13.0053C26.6278 12.7847 25.5583 12.6744 24.4582 12.6744C22.556 12.6744 20.8944 12.9635 19.4735 13.5417C18.0526 14.1122 16.8685 14.9148 15.9212 15.9494C14.974 16.984 14.2635 18.1974 13.7899 19.5896C13.3239 20.9741 13.087 22.4842 13.0794 24.1198C13.087 25.9228 13.3391 27.5203 13.8357 28.9125C14.3399 30.2971 15.0809 31.461 16.0587 32.4043C17.0366 33.3477 18.2436 34.0628 19.6798 34.5496C21.116 35.0365 22.7661 35.28 24.6301 35.28C25.5086 35.28 26.368 35.2153 27.2083 35.086C28.0487 34.9642 28.8088 34.8121 29.4887 34.6295C30.1686 34.4545 30.7148 34.2834 31.1273 34.116L32.2618 37.4253C31.7805 37.6991 31.1273 37.954 30.3023 38.1898C29.4849 38.4332 28.5605 38.6272 27.5292 38.7718C26.5055 38.9239 25.4513 39 24.3665 39ZM23.8394 28.6843C24.7714 28.6843 25.5124 28.5055 26.0625 28.148C26.6201 27.7904 27.0174 27.2617 27.2542 26.5618C27.4986 25.8543 27.6132 24.9833 27.598 23.9486C27.5903 23.0358 27.4719 22.2636 27.2427 21.6322C27.0212 20.9932 26.6354 20.5101 26.0854 20.183C25.543 19.8482 24.7867 19.6809 23.8165 19.6809C22.9685 19.6809 22.2466 19.8596 21.6507 20.2172C21.0625 20.5747 20.6118 21.0768 20.2986 21.7235C19.993 22.3625 19.8364 23.1156 19.8288 23.9829C19.8364 24.7893 19.9663 25.5538 20.2184 26.2765C20.4705 26.9916 20.8868 27.5736 21.4674 28.0224C22.048 28.4637 22.8387 28.6843 23.8394 28.6843Z" fill="white"/>
</svg>
