<svg width="80" height="80" viewBox="0 0 80 80" fill="none" xmlns="http://www.w3.org/2000/svg">
<g clip-path="url(#clip0_478_1016)">
<path d="M67.8628 48.7343L67.4958 48.9321C65.8998 47.0153 63.1503 46.2761 61.055 47.3381C61.0477 47.3421 61.0396 47.3462 61.0323 47.3502L60.1287 47.8367C57.857 45.9266 54.6329 45.6405 52.0604 47.1209L47.0853 49.8264H40.464C39.0338 49.8244 37.6215 49.5009 36.333 48.8793L35.4214 48.4389C30.1147 45.8564 23.8069 46.4726 19.1004 50.0322C19.0777 50.0496 19.0556 50.067 19.0349 50.0857L16.8327 52.0466C16.0133 52.7744 15.0462 53.3165 13.9976 53.6359L12.7558 49.5644C12.6241 49.132 12.2251 48.8372 11.774 48.8372H1.12394C0.829865 48.8372 0.550498 48.9629 0.355341 49.1834C0.160853 49.4033 0.0692898 49.6961 0.10538 49.9881L3.65562 79.0978C3.71845 79.6131 4.15555 80.0001 4.67418 80.0001H20.6489C20.9744 80.0001 21.2805 79.8457 21.4737 79.5844C21.6675 79.3231 21.7256 78.9849 21.6307 78.6741L19.5388 71.8129L26.0518 67.6966C26.9187 67.2174 27.9352 67.0864 28.895 67.329C28.9164 67.3343 28.9377 67.339 28.9591 67.343L42.2545 69.7912C45.8749 70.4388 49.6076 69.9115 52.9072 68.2867C52.9507 68.2653 52.9928 68.2406 53.0329 68.2132L76.0279 52.4242C76.4757 52.1168 76.6067 51.514 76.3267 51.0488C74.579 48.1368 70.8489 47.1169 67.8628 48.7343ZM61.994 49.1641C63.175 48.5726 64.6587 49.0458 65.6218 49.9433L56.944 54.6251L56.4682 54.8757C56.1955 54.1158 55.8038 53.404 55.3073 52.7671L61.994 49.1641ZM53.0536 48.9188L53.0777 48.9047C54.6382 48.0025 56.5631 48.0085 58.1176 48.9208L53.758 51.27C52.9386 50.6758 52.0076 50.2514 51.0218 50.0235L53.0536 48.9188ZM5.58313 77.947L2.28351 50.8911H11.0134L19.2621 77.947H5.58313ZM51.9308 66.4788C49.0429 67.8837 45.784 68.3362 42.6221 67.7714L29.3608 65.3293C27.8938 64.967 26.3439 65.1769 25.0259 65.9174C25.0099 65.9261 24.9945 65.9355 24.9785 65.9455L18.9173 69.7771L14.5964 55.6022C15.9284 55.1959 17.1568 54.5055 18.1975 53.5798L20.3676 51.6483C24.4578 48.5732 29.9256 48.0479 34.5271 50.2869L35.4387 50.728C37.006 51.4832 38.7236 51.8769 40.4633 51.8795H49.3082C51.9555 51.8829 54.2332 53.7529 54.7519 56.3494L48.3859 56.0614C46.0534 55.9564 43.7162 56.0647 41.403 56.3842C41.0368 56.4303 40.7233 56.6702 40.5823 57.0124C40.442 57.3539 40.4961 57.7449 40.724 58.0363C40.9519 58.3271 41.3188 58.4727 41.6844 58.4179C43.8739 58.1159 46.0854 58.0136 48.293 58.1125L55.8373 58.4547C55.8526 58.4547 55.868 58.456 55.884 58.456C56.4508 58.456 56.9106 57.9962 56.9106 57.4295C56.9106 57.2751 56.9046 57.1234 56.8952 56.9723L57.9098 56.437L68.8379 50.5415C70.5368 49.6219 72.6401 49.9487 73.9795 51.3409L51.9308 66.4788Z" fill="white"/>
<path d="M8.17188 39.7544C8.17388 41.2656 9.39829 42.4906 10.9094 42.492H65.6602C67.1719 42.492 68.3977 41.2662 68.3977 39.7544C68.3977 38.2426 67.1719 37.0169 65.6602 37.0169H64.9758V17.1256C64.9758 15.0284 63.2762 13.3288 61.1789 13.3288H61.1756L51.2881 13.3381V9.69633C51.8956 9.51521 52.4483 9.18505 52.8968 8.73592C54.1974 7.43399 54.3912 5.39153 53.3586 3.86838L51.0354 0.449795C50.8443 0.168423 50.5262 0 50.186 0C49.8458 0 49.5283 0.168423 49.3372 0.449795L47.0134 3.86838C46.3089 4.9003 46.1532 6.21159 46.5956 7.38052C47.0381 8.54879 48.0232 9.42833 49.2349 9.7351V13.3401L39.3114 13.3495V9.69633C39.9189 9.51521 40.4716 9.18505 40.9201 8.73592C42.22 7.43332 42.4131 5.39153 41.3799 3.86838L39.0567 0.449795C38.8656 0.168423 38.5474 0 38.2073 0C37.8677 0 37.5496 0.168423 37.3585 0.449795L35.0353 3.86838C34.3309 4.90097 34.1745 6.21226 34.6176 7.38119C35.0607 8.54946 36.0465 9.42833 37.2582 9.7351V13.3515L27.3346 13.3615V9.69633C27.9422 9.51521 28.4949 9.18505 28.9433 8.73592C30.2433 7.43332 30.4364 5.39153 29.4032 3.86838L27.08 0.449795C26.8888 0.168423 26.5707 0 26.2305 0C25.891 0 25.5729 0.168423 25.3817 0.449795L23.0592 3.86771C22.3548 4.9003 22.1984 6.21159 22.6415 7.38052C23.084 8.54946 24.0698 9.42833 25.2815 9.7351V13.3635L15.3873 13.3729C13.2927 13.3776 11.5965 15.0752 11.5938 17.1704V37.0176H10.9094C9.39829 37.0189 8.17388 38.2433 8.17188 39.7544ZM48.7109 5.02194L50.1853 2.85316L51.6597 5.02261C52.1643 5.76514 52.0373 6.76765 51.3643 7.36114C50.6906 7.9553 49.68 7.9553 49.0064 7.36114C48.3327 6.76765 48.2064 5.76514 48.7109 5.02261V5.02194ZM36.7342 5.02194L38.2086 2.85316L39.683 5.02194C40.1876 5.76514 40.0606 6.76698 39.3876 7.36114C38.7139 7.95463 37.7033 7.95463 37.0296 7.36114C36.3559 6.76698 36.2296 5.76514 36.7342 5.02194ZM24.7575 5.02194L26.2319 2.85316L27.7062 5.02194C28.2108 5.76514 28.0838 6.76698 27.4108 7.36114C26.7371 7.95463 25.7266 7.95463 25.0529 7.36114C24.3792 6.76698 24.2529 5.76514 24.7575 5.02194ZM66.3445 39.7544C66.3445 40.1327 66.0384 40.4388 65.6602 40.4388H10.9094C10.5318 40.4388 10.225 40.1327 10.225 39.7544C10.225 39.3768 10.5318 39.0701 10.9094 39.0701H65.6602C66.0384 39.0701 66.3445 39.3768 66.3445 39.7544ZM15.3893 15.426L61.1776 15.3819H61.1796C62.142 15.3819 62.9226 16.1626 62.9226 17.1256V18.4557C62.0524 19.9554 60.4337 20.8624 58.7 20.8203C56.9657 20.7781 55.3924 19.795 54.5957 18.2545C54.4199 17.9123 54.0684 17.6964 53.6834 17.6964H53.6814C53.2971 17.6964 52.9449 17.911 52.7685 18.2525C51.9524 19.8298 50.3243 20.8203 48.5485 20.8203C46.7721 20.8203 45.1447 19.8298 44.3286 18.2525C44.3259 18.2471 44.3219 18.2398 44.3193 18.2351C44.1388 17.8996 43.7866 17.6917 43.4056 17.6957C43.0247 17.6991 42.6771 17.9136 42.5027 18.2525C41.6867 19.8298 40.0586 20.8203 38.2828 20.8203C36.5063 20.8203 34.8782 19.8298 34.0622 18.2525C34.0582 18.2445 34.0535 18.2351 34.0488 18.2277C33.8664 17.8956 33.5155 17.6911 33.1365 17.6957C32.7576 17.7004 32.412 17.9136 32.2376 18.2505C31.4216 19.8284 29.7941 20.8196 28.0177 20.8196C26.2412 20.8196 24.6131 19.8284 23.7971 18.2505C23.6206 17.9096 23.2684 17.6951 22.8848 17.6957C22.5005 17.6957 22.149 17.911 21.9725 18.2518C21.1758 19.7923 19.6039 20.7755 17.8702 20.8182C16.1372 20.8604 14.5178 19.9554 13.6469 18.4563V17.1698C13.6476 16.2073 14.4269 15.4274 15.3893 15.426ZM13.6469 21.4946C14.8286 22.3909 16.2709 22.8747 17.7533 22.8727C19.7222 22.8774 21.5956 22.0253 22.8861 20.5389C24.1767 22.0246 26.0501 22.8761 28.0184 22.8721C29.9866 22.8767 31.86 22.0246 33.1512 20.5389C34.4418 22.0253 36.3152 22.8774 38.2841 22.8727C40.2524 22.8774 42.1258 22.0259 43.417 20.5395C44.7102 22.0226 46.5816 22.8741 48.5499 22.8741C50.5175 22.8741 52.3895 22.0226 53.6828 20.5395C56.0327 23.237 60.0701 23.654 62.9226 21.4946V37.0169H13.6469V21.4946Z" fill="white"/>
</g>
<defs>
<clipPath id="clip0_478_1016">
<rect width="80" height="80" fill="white"/>
</clipPath>
</defs>
</svg>
