<svg width="80" height="80" viewBox="0 0 80 80" fill="none" xmlns="http://www.w3.org/2000/svg">
<g clip-path="url(#clip0_478_1011)">
<path d="M5.51047 61.9727H49.5781V66.6728C49.5793 67.6846 49.9817 68.6547 50.6972 69.3702C51.4127 70.0856 52.3827 70.4881 53.3945 70.4892H76.1836C77.1954 70.4881 78.1655 70.0856 78.8809 69.3702C79.5964 68.6547 79.9988 67.6846 80 66.6728V20.8888C79.9988 19.8769 79.5964 18.9069 78.8809 18.1914C78.1655 17.476 77.1954 17.0735 76.1836 17.0724H66.5411V13.9005C66.5398 12.7367 66.077 11.621 65.2541 10.7981C64.4312 9.97525 63.3155 9.51239 62.1517 9.51111H6.14719C4.98351 9.51243 3.86787 9.97526 3.045 10.7981C2.22213 11.6209 1.75922 12.7365 1.75781 13.9002V49.0625C1.75712 49.7164 1.90344 50.3621 2.18594 50.9519H1.25C0.918479 50.9519 0.600537 51.0836 0.366117 51.318C0.131696 51.5524 0 51.8704 0 52.2019L0 56.4625C0.00169564 57.9234 0.582816 59.324 1.61587 60.357C2.64893 61.39 4.04955 61.9711 5.51047 61.9727ZM5.51047 59.4727C4.71236 59.4718 3.94719 59.1544 3.38282 58.5901C2.81844 58.0258 2.50095 57.2606 2.5 56.4625V53.452H24.8581V55.3627C24.8586 55.909 25.0759 56.4328 25.4622 56.8191C25.8485 57.2055 26.3723 57.4228 26.9186 57.4233H41.3803C41.9266 57.4228 42.4504 57.2055 42.8367 56.8191C43.223 56.4328 43.4403 55.909 43.4408 55.3627V53.452H49.5781V59.4727H5.51047ZM27.3581 53.452H40.9408V54.9233H27.3581V53.452ZM60.4592 17.0724H53.3944C52.3826 17.0736 51.4126 17.476 50.6972 18.1915C49.9817 18.907 49.5793 19.877 49.5781 20.8888V47.3702H7.83969V15.5925H60.4592V17.0724ZM77.5 20.8888V66.6728C77.4996 67.0218 77.3608 67.3565 77.114 67.6033C76.8672 67.85 76.5326 67.9889 76.1836 67.9892H53.3944C53.0454 67.9889 52.7107 67.85 52.4639 67.6033C52.2172 67.3565 52.0783 67.0218 52.078 66.6728V20.8888C52.0783 20.5397 52.2172 20.2051 52.4639 19.9583C52.7107 19.7115 53.0454 19.5727 53.3944 19.5724H76.1836C76.5326 19.5727 76.8672 19.7115 77.114 19.9583C77.3608 20.2051 77.4996 20.5397 77.5 20.8888ZM4.25781 49.0625V13.9002C4.25839 13.3993 4.45764 12.919 4.81184 12.5648C5.16604 12.2106 5.64627 12.0114 6.14719 12.0108H62.1517C62.6526 12.0114 63.1329 12.2106 63.4871 12.5648C63.8413 12.919 64.0405 13.3993 64.0411 13.9002V17.072H62.9592V14.3425C62.9592 14.011 62.8275 13.6931 62.5931 13.4586C62.3587 13.2242 62.0407 13.0925 61.7092 13.0925H6.58969C6.25817 13.0925 5.94022 13.2242 5.7058 13.4586C5.47138 13.6931 5.33969 14.011 5.33969 14.3425V48.6202C5.33969 48.9517 5.47138 49.2696 5.7058 49.5041C5.94022 49.7385 6.25817 49.8702 6.58969 49.8702H49.5781V50.952H6.14719C5.64624 50.9515 5.16599 50.7522 4.81178 50.398C4.45758 50.0437 4.25835 49.5635 4.25781 49.0625ZM64.7891 67.0033C65.3409 67.0035 65.8803 66.84 66.3392 66.5335C66.7981 66.227 67.1558 65.7914 67.3671 65.2816C67.5784 64.7718 67.6337 64.2108 67.5262 63.6696C67.4186 63.1284 67.1529 62.6312 66.7628 62.241C66.3726 61.8507 65.8755 61.5849 65.3343 61.4772C64.7931 61.3696 64.2321 61.4248 63.7223 61.6359C63.2125 61.8471 62.7767 62.2047 62.4701 62.6635C62.1636 63.1224 62 63.6618 62 64.2136C62.0008 64.9531 62.2949 65.6621 62.8177 66.1851C63.3405 66.7081 64.0494 67.0024 64.7889 67.0034L64.7891 67.0033ZM64.7891 63.9236C64.8464 63.9236 64.9025 63.9405 64.9501 63.9724C64.9978 64.0042 65.035 64.0495 65.057 64.1024C65.0789 64.1554 65.0847 64.2137 65.0735 64.2699C65.0623 64.3261 65.0348 64.3778 64.9942 64.4184C64.9537 64.4589 64.9021 64.4865 64.8458 64.4977C64.7896 64.5089 64.7313 64.5032 64.6783 64.4812C64.6254 64.4593 64.5801 64.4222 64.5482 64.3745C64.5164 64.3268 64.4994 64.2708 64.4994 64.2135C64.5005 64.137 64.5313 64.064 64.5854 64.0099C64.6394 63.9558 64.7124 63.9249 64.7889 63.9238L64.7891 63.9236ZM63.5391 21.2517C63.5388 21.0877 63.5709 20.9253 63.6334 20.7736C63.696 20.622 63.7878 20.4842 63.9037 20.3681C64.0196 20.252 64.1572 20.1599 64.3087 20.0971C64.4601 20.0342 64.6225 20.0018 64.7866 20.0017H64.7917C65.0388 20.0023 65.2802 20.076 65.4855 20.2137C65.6907 20.3514 65.8505 20.5468 65.9447 20.7752C66.0389 21.0037 66.0632 21.2549 66.0147 21.4972C65.9662 21.7395 65.8469 21.962 65.672 22.1366C65.4971 22.3111 65.2744 22.4299 65.032 22.4779C64.7895 22.5259 64.5384 22.501 64.3101 22.4063C64.0818 22.3116 63.8868 22.1514 63.7495 21.9459C63.6123 21.7404 63.5391 21.4988 63.5391 21.2517Z" fill="url(#paint0_radial_478_1011)" fill-opacity="0.7"/>
</g>
<defs>
<radialGradient id="paint0_radial_478_1011" cx="0" cy="0" r="1" gradientUnits="userSpaceOnUse" gradientTransform="translate(1.5 64.0103) rotate(-28.8841) scale(103.358 62.3776)">
<stop stop-color="#FA8F21"/>
<stop offset="0.793099" stop-color="#D82D7E"/>
</radialGradient>
<clipPath id="clip0_478_1011">
<rect width="80" height="80" fill="white"/>
</clipPath>
</defs>
</svg>
