<svg width="80" height="80" viewBox="0 0 80 80" fill="none" xmlns="http://www.w3.org/2000/svg">
<g clip-path="url(#clip0_478_1007)">
<path d="M69.4167 42.1666H19.4167C16.0163 42.1666 13.25 44.933 13.25 48.3333C13.25 51.7336 16.0163 54.5 19.4167 54.5H29.3078C30.0442 54.5 30.6412 53.903 30.6412 53.1666C30.6412 52.4303 30.0442 51.8333 29.3078 51.8333H19.4167C17.4868 51.8333 15.9167 50.2631 15.9167 48.3333C15.9167 46.4035 17.4868 44.8333 19.4167 44.8333H69.4167C71.3465 44.8333 72.9167 46.4035 72.9167 48.3333C72.9167 50.2631 71.3465 51.8333 69.4167 51.8333H52.1838L50.2077 47.8155C49.8827 47.1546 49.0835 46.8823 48.4227 47.2076C47.762 47.5326 47.4897 48.3318 47.8148 48.9926L55.0598 63.7223C55.2918 64.1938 55.765 64.4675 56.2573 64.4675C57.2338 64.4675 57.8913 63.4368 57.4528 62.5453L53.4953 54.5H66.7142L63.9463 73.3838C63.6163 75.6355 61.6512 77.3333 59.3755 77.3333H29.6697C27.3942 77.3333 25.4292 75.6353 25.0988 73.3838L23.1617 60.1676C23.0548 59.439 22.3795 58.9353 21.6492 59.0418C20.9205 59.1486 20.4165 59.8258 20.5233 60.5543L22.4605 73.7705C22.9812 77.322 26.0805 80 29.6697 80H59.3755C62.965 80 66.0643 77.322 66.5847 73.7705L69.4093 54.5C72.8425 54.5 75.5833 51.7113 75.5833 48.3333C75.5833 44.933 72.817 42.1666 69.4167 42.1666Z" fill="#F1F1F1"/>
<path d="M40.1012 47.197C39.4349 46.8842 38.6407 47.1712 38.3277 47.8377L31.4161 62.5673C30.9982 63.4578 31.6564 64.4673 32.6222 64.4673C33.1232 64.4673 33.6032 64.1837 33.8301 63.7L38.1471 54.5H45.2078C45.9441 54.5 46.5411 53.903 46.5411 53.1667C46.5411 52.4303 45.9441 51.8334 45.2078 51.8334H39.3984L40.7417 48.9703C41.0546 48.3037 40.7679 47.5099 40.1012 47.197Z" fill="#FCFCFC"/>
<path d="M5.75033 2.66667H37.4538C38.8415 2.66667 40.1513 3.40333 40.8722 4.58917L43.0463 8.16667H31.0837C30.0997 8.16667 29.1537 8.5275 28.4202 9.18267C27.8708 9.673 27.8232 10.516 28.3137 11.0652C28.8038 11.6145 29.6468 11.662 30.1962 11.1717C30.4405 10.9535 30.7557 10.8333 31.0837 10.8333H58.6705C59.0205 13.5822 60.4453 16.0557 62.7035 17.7573C62.9438 17.9383 63.2255 18.0257 63.505 18.0257C64.7838 18.0257 65.3255 16.394 64.3083 15.6273C62.7268 14.4357 61.6943 12.7348 61.3647 10.8332H66.2503C66.9855 10.8332 67.5837 11.4313 67.5837 12.1665V25.0867C64.8258 25.4375 62.3468 26.8697 60.6447 29.1398C60.203 29.7288 60.3223 30.5647 60.9117 31.0063C61.5018 31.449 62.3377 31.3272 62.7782 30.7393C64.2425 28.7868 66.48 27.6667 68.917 27.6667C69.6533 27.6667 70.2503 27.0697 70.2503 26.3333V12.1667C70.2503 9.96117 68.4558 8.16667 66.2503 8.16667H46.1668L43.1507 3.20417C41.9493 1.22767 39.7665 0 37.4538 0H5.75033C5.01399 0 4.41699 0.597 4.41699 1.33333C4.41699 2.06967 5.01399 2.66667 5.75033 2.66667Z" fill="white"/>
<path d="M21.5837 27.5H27.0837V32.6666C27.0837 34.8721 28.8782 36.6666 31.0837 36.6666H66.2503C67.8613 36.6666 69.308 35.7078 69.9353 34.224C70.2222 33.5458 69.9048 32.7633 69.2267 32.4766C68.5482 32.1896 67.766 32.5073 67.4793 33.1853C67.27 33.6803 66.7877 34.0001 66.2503 34.0001H38.6633C38.4757 32.5513 37.9847 31.157 37.2135 29.9088C36.8265 29.282 36.0047 29.088 35.3785 29.4751C34.752 29.862 34.5578 30.6836 34.9448 31.3101C35.4548 32.136 35.7958 33.0493 35.963 34.0001H31.0837C30.3485 34.0001 29.7503 33.402 29.7503 32.6668V27.5001H33.6952C37.0592 27.5001 39.8695 24.8111 39.96 21.506C40.0555 18.0313 37.2743 15.1666 33.7957 15.1666H23.917C23.1807 15.1666 22.5837 15.7636 22.5837 16.5C22.5837 17.2363 23.1807 17.8333 23.917 17.8333H33.7957C35.7647 17.8333 37.3485 19.4525 37.2942 21.4328C37.2428 23.3078 35.6283 24.8333 33.695 24.8333H21.5837C17.9077 24.8333 14.917 21.8426 14.917 18.1666C14.917 17.4303 14.32 16.8333 13.5837 16.8333H5.75033C5.01399 16.8333 4.41699 17.4303 4.41699 18.1666C4.41699 18.903 5.01399 19.5 5.75033 19.5H12.3452C12.9943 24.0171 16.8898 27.5 21.5837 27.5Z" fill="white"/>
<path d="M45.5262 25.5572C45.0053 25.0367 44.1613 25.0367 43.6405 25.5572C43.1198 26.078 43.1198 26.922 43.6405 27.4428C46.4577 30.26 51.0422 30.2603 53.8595 27.4428C56.6768 24.6255 56.6768 20.0412 53.8595 17.2238C51.0422 14.4065 46.4578 14.4065 43.6405 17.2238C43.1198 17.7447 43.1198 18.5887 43.6405 19.1095C44.1613 19.63 45.0053 19.63 45.5262 19.1095C47.3038 17.3318 50.1962 17.3318 51.9738 19.1095C53.7515 20.887 53.7515 23.7797 51.9738 25.5572C50.1962 27.3348 47.3038 27.3348 45.5262 25.5572Z" fill="white"/>
</g>
<defs>
<clipPath id="clip0_478_1007">
<rect width="80" height="80" fill="white"/>
</clipPath>
</defs>
</svg>
