<svg width="55" height="28" viewBox="0 0 55 28" fill="none" xmlns="http://www.w3.org/2000/svg">
<path d="M4.53125 0.765625C5.03125 0.765625 5.51562 1.00521 5.98438 1.48438C6.46354 1.95312 6.91667 2.59375 7.34375 3.40625C7.77083 4.20833 8.16667 5.14583 8.53125 6.21875C8.89583 7.28125 9.22917 8.40625 9.53125 9.59375C10.2708 10.5521 11.0573 11.5573 11.8906 12.6094C12.724 13.6615 13.5833 14.7292 14.4688 15.8125C15.3646 16.8958 16.2708 17.9844 17.1875 19.0781C18.1146 20.1615 19.0365 21.224 19.9531 22.2656C19.2969 19.3802 18.8021 16.7865 18.4688 14.4844C18.1354 12.1823 17.9688 10.1562 17.9688 8.40625C17.9688 7.14583 18.0885 6.04167 18.3281 5.09375C18.5781 4.13542 18.9115 3.33854 19.3281 2.70312C19.7448 2.05729 20.2344 1.57292 20.7969 1.25C21.3594 0.927083 21.9635 0.765625 22.6094 0.765625C23.0885 0.765625 23.5052 0.848958 23.8594 1.01562C24.224 1.18229 24.526 1.40625 24.7656 1.6875C25.0156 1.96875 25.1979 2.29167 25.3125 2.65625C25.4375 3.02083 25.5 3.40104 25.5 3.79688C25.5 4.32812 25.4427 4.82292 25.3281 5.28125C25.224 5.73958 25.1094 6.14062 24.9844 6.48438C24.8281 6.89062 24.6562 7.26562 24.4688 7.60938L23.8594 7.21875C23.901 7.125 23.9583 6.98958 24.0312 6.8125C24.1146 6.625 24.1927 6.40104 24.2656 6.14062C24.3385 5.86979 24.401 5.56771 24.4531 5.23438C24.5052 4.89062 24.5312 4.52083 24.5312 4.125C24.5312 3.47917 24.3854 2.97396 24.0938 2.60938C23.8021 2.23438 23.4167 2.04688 22.9375 2.04688C22.3125 2.04688 21.7812 2.26042 21.3438 2.6875C20.9167 3.10417 20.5677 3.6875 20.2969 4.4375C20.0365 5.17708 19.8438 6.05208 19.7188 7.0625C19.6042 8.0625 19.5469 9.14062 19.5469 10.2969C19.5469 11.3802 19.5938 12.5104 19.6875 13.6875C19.7812 14.8542 19.9062 16.026 20.0625 17.2031C20.2292 18.3698 20.4167 19.5156 20.625 20.6406C20.8438 21.7656 21.0781 22.8177 21.3281 23.7969L23.5781 26.2031L21.6875 27.9844C21.0729 27.3906 20.3229 26.6354 19.4375 25.7188C18.5625 24.8021 17.6146 23.7656 16.5938 22.6094C15.5729 21.4531 14.5052 20.2031 13.3906 18.8594C12.2865 17.5156 11.1979 16.125 10.125 14.6875C10.2292 15.2812 10.2969 15.9115 10.3281 16.5781C10.3698 17.2344 10.3906 17.9583 10.3906 18.75C10.3906 20.1979 10.2188 21.4427 9.875 22.4844C9.53125 23.5156 9.08333 24.3698 8.53125 25.0469C7.98958 25.7135 7.38021 26.2083 6.70312 26.5312C6.03646 26.8438 5.375 27 4.71875 27C4.20833 27 3.71875 26.9115 3.25 26.7344C2.79167 26.5573 2.38542 26.2969 2.03125 25.9531C1.6875 25.6094 1.41146 25.1927 1.20312 24.7031C0.994792 24.2031 0.890625 23.6354 0.890625 23C0.890625 22.0312 1.125 21.0938 1.59375 20.1875C2.0625 19.2812 2.65625 18.4271 3.375 17.625L3.98438 17.9375C3.77604 18.25 3.57812 18.5833 3.39062 18.9375C3.21354 19.2917 3.05208 19.6562 2.90625 20.0312C2.77083 20.3958 2.66146 20.7708 2.57812 21.1562C2.49479 21.5417 2.45312 21.9219 2.45312 22.2969C2.45312 22.776 2.52604 23.2135 2.67188 23.6094C2.82812 23.9948 3.03125 24.3281 3.28125 24.6094C3.53125 24.8802 3.82292 25.0938 4.15625 25.25C4.5 25.3958 4.85938 25.4688 5.23438 25.4688C5.72396 25.4688 6.21875 25.3281 6.71875 25.0469C7.22917 24.7552 7.6875 24.2969 8.09375 23.6719C8.51042 23.0365 8.84896 22.2188 9.10938 21.2188C9.36979 20.2083 9.5 18.9896 9.5 17.5625C9.5 16.7396 9.44792 15.9427 9.34375 15.1719C9.25 14.3906 9.10938 13.6615 8.92188 12.9844C7.78646 11.3698 6.84896 9.97396 6.10938 8.79688C5.38021 7.61979 4.80208 6.61458 4.375 5.78125C3.95833 4.9375 3.66667 4.24479 3.5 3.70312C3.33333 3.16146 3.25 2.71354 3.25 2.35938C3.25 1.79688 3.38021 1.39062 3.64062 1.14062C3.91146 0.890625 4.20833 0.765625 4.53125 0.765625ZM4.21875 1.875C4.21875 1.97917 4.30729 2.19792 4.48438 2.53125C4.67188 2.85417 4.93229 3.27083 5.26562 3.78125C5.60938 4.28125 6.02083 4.86458 6.5 5.53125C6.97917 6.19792 7.51562 6.92188 8.10938 7.70312C7.84896 6.88021 7.5625 6.09896 7.25 5.35938C6.94792 4.60938 6.64062 3.95312 6.32812 3.39062C6.01562 2.82812 5.70312 2.38542 5.39062 2.0625C5.07812 1.72917 4.79167 1.5625 4.53125 1.5625C4.32292 1.5625 4.21875 1.66667 4.21875 1.875ZM26.4688 25.5625C26.4688 25.3646 26.5052 25.1771 26.5781 25C26.651 24.8229 26.75 24.6719 26.875 24.5469C27.0104 24.4115 27.1667 24.3073 27.3438 24.2344C27.5208 24.1615 27.7083 24.125 27.9062 24.125C28.1042 24.125 28.2917 24.1615 28.4688 24.2344C28.6458 24.3073 28.7969 24.4115 28.9219 24.5469C29.0573 24.6719 29.1615 24.8229 29.2344 25C29.3073 25.1771 29.3438 25.3646 29.3438 25.5625C29.3438 25.7604 29.3073 25.9479 29.2344 26.125C29.1615 26.3021 29.0573 26.4583 28.9219 26.5938C28.7969 26.7188 28.6458 26.8177 28.4688 26.8906C28.2917 26.9635 28.1042 27 27.9062 27C27.7083 27 27.5208 26.9635 27.3438 26.8906C27.1667 26.8177 27.0104 26.7188 26.875 26.5938C26.75 26.4583 26.651 26.3021 26.5781 26.125C26.5052 25.9479 26.4688 25.7604 26.4688 25.5625ZM39.5938 23.3125C39.4792 24.125 39.3125 24.8177 39.0938 25.3906C38.875 25.9531 38.6094 26.4167 38.2969 26.7812C37.9844 27.1354 37.625 27.3906 37.2188 27.5469C36.8229 27.7135 36.3854 27.7969 35.9062 27.7969C35.2292 27.7969 34.5938 27.599 34 27.2031C33.4167 26.8073 32.9115 26.2188 32.4844 25.4375C32.0573 24.6562 31.7188 23.6875 31.4688 22.5312C31.2292 21.375 31.1094 20.0365 31.1094 18.5156C31.1094 16.9219 31.2604 15.375 31.5625 13.875C31.875 12.375 32.3125 10.9688 32.875 9.65625C33.4479 8.34375 34.1302 7.14583 34.9219 6.0625C35.724 4.96875 36.6146 4.03646 37.5938 3.26562C38.5833 2.48438 39.651 1.88021 40.7969 1.45312C41.9427 1.01562 43.1406 0.796875 44.3906 0.796875C45.4635 0.796875 46.4427 0.958333 47.3281 1.28125C48.2135 1.60417 48.974 2.05208 49.6094 2.625C50.2448 3.19792 50.7344 3.875 51.0781 4.65625C51.4219 5.4375 51.5938 6.28125 51.5938 7.1875C51.5938 8.28125 51.4427 9.30208 51.1406 10.25C50.8385 11.1875 50.4167 12.0469 49.875 12.8281C49.3438 13.6094 48.7083 14.3073 47.9688 14.9219C47.2292 15.5365 46.4219 16.0573 45.5469 16.4844C44.6823 16.9115 43.7656 17.2448 42.7969 17.4844C41.8385 17.7135 40.8646 17.8438 39.875 17.875C39.8438 19.1771 39.8073 20.276 39.7656 21.1719C39.7344 22.0573 39.6771 22.7708 39.5938 23.3125ZM36.875 16.7656C36.9271 16.7865 36.9896 16.8073 37.0625 16.8281C37.125 16.849 37.1979 16.8698 37.2812 16.8906C37.375 16.9115 37.4844 16.9323 37.6094 16.9531C37.5885 15.651 37.5625 14.4583 37.5312 13.375C37.5104 12.2812 37.4844 11.3281 37.4531 10.5156C37.4115 9.56771 37.375 8.71354 37.3438 7.95312C37.4167 7.89062 37.5 7.83854 37.5938 7.79688C37.6771 7.75521 37.776 7.71875 37.8906 7.6875C38.0052 7.65625 38.1458 7.64062 38.3125 7.64062C38.7917 7.64062 39.1771 7.72917 39.4688 7.90625C39.7604 8.07292 39.9062 8.35938 39.9062 8.76562C39.9062 10.4844 39.9062 12.026 39.9062 13.3906C39.9062 14.7552 39.8958 15.9844 39.875 17.0781C41.2396 17.0781 42.474 16.8177 43.5781 16.2969C44.6927 15.776 45.6406 15.0833 46.4219 14.2188C47.2031 13.3438 47.8073 12.3385 48.2344 11.2031C48.6615 10.0677 48.875 8.88021 48.875 7.64062C48.875 6.84896 48.7656 6.09896 48.5469 5.39062C48.3385 4.67188 48.0156 4.04688 47.5781 3.51562C47.1406 2.97396 46.5885 2.54688 45.9219 2.23438C45.2656 1.91146 44.4896 1.75 43.5938 1.75C42.6875 1.75 41.7917 1.92188 40.9062 2.26562C40.0312 2.60938 39.1927 3.125 38.3906 3.8125C37.599 4.5 36.8646 5.35417 36.1875 6.375C35.5208 7.39583 34.9375 8.58854 34.4375 9.95312C33.9479 11.3177 33.5625 12.849 33.2812 14.5469C33.0104 16.2344 32.875 18.0938 32.875 20.125C32.875 21 32.9167 21.8542 33 22.6875C33.0938 23.5104 33.2448 24.2448 33.4531 24.8906C33.6615 25.526 33.9375 26.0365 34.2812 26.4219C34.6354 26.8073 35.0729 27 35.5938 27C35.875 27 36.1406 26.9427 36.3906 26.8281C36.6406 26.7135 36.8594 26.4792 37.0469 26.125C37.2344 25.7604 37.3854 25.2448 37.5 24.5781C37.6146 23.901 37.6719 23 37.6719 21.875C37.6719 21.1667 37.6667 20.4688 37.6562 19.7812C37.6458 19.0833 37.6406 18.4062 37.6406 17.75C37.4844 17.7292 37.349 17.7031 37.2344 17.6719C37.1198 17.6406 37.0208 17.6146 36.9375 17.5938C36.8438 17.5625 36.7656 17.5312 36.7031 17.5L36.875 16.7656ZM51.5938 25.5625C51.5938 25.3646 51.6302 25.1771 51.7031 25C51.776 24.8229 51.875 24.6719 52 24.5469C52.1354 24.4115 52.2917 24.3073 52.4688 24.2344C52.6458 24.1615 52.8333 24.125 53.0312 24.125C53.2292 24.125 53.4167 24.1615 53.5938 24.2344C53.7708 24.3073 53.9219 24.4115 54.0469 24.5469C54.1823 24.6719 54.2865 24.8229 54.3594 25C54.4323 25.1771 54.4688 25.3646 54.4688 25.5625C54.4688 25.7604 54.4323 25.9479 54.3594 26.125C54.2865 26.3021 54.1823 26.4583 54.0469 26.5938C53.9219 26.7188 53.7708 26.8177 53.5938 26.8906C53.4167 26.9635 53.2292 27 53.0312 27C52.8333 27 52.6458 26.9635 52.4688 26.8906C52.2917 26.8177 52.1354 26.7188 52 26.5938C51.875 26.4583 51.776 26.3021 51.7031 26.125C51.6302 25.9479 51.5938 25.7604 51.5938 25.5625Z" fill="black"/>
</svg>
