<svg xmlns="http://www.w3.org/2000/svg" width="70" height="70" fill="none"><path fill="#FFFCFB" d="M28.07 62.599c13.124 0 23.763-10.639 23.763-23.762 0-13.124-10.639-23.763-23.762-23.763-13.124 0-23.762 10.639-23.762 23.763 0 13.123 10.638 23.762 23.762 23.762Z"/><path fill="#DCC2C5" d="m28.339 57.203-.302-.514C23.434 48.846 11.2 32.2 11.076 32.032l-.177-.24 4.169-4.119 13.193 9.213c8.308-10.78 16.058-18.184 21.113-22.508 5.53-4.73 9.13-6.907 9.166-6.928l.082-.049h7.07l-.675.602c-17.37 15.47-36.196 48.352-36.383 48.683l-.295.517Z"/><path fill="url(#a)" d="m28.339 57.203-.302-.514C23.434 48.846 11.2 32.2 11.076 32.032l-.177-.24 4.169-4.119 13.193 9.213c8.308-10.78 16.058-18.184 21.113-22.508 5.53-4.73 9.13-6.907 9.166-6.928l.082-.049h7.07l-.675.602c-17.37 15.47-36.196 48.352-36.383 48.683l-.295.517Z"/><defs><radialGradient id="a" cx="0" cy="0" r="1" gradientTransform="matrix(61.98461 -40.77515 26.714 40.60947 11.927 51.912)" gradientUnits="userSpaceOnUse"><stop stop-color="#FA8F21"/><stop offset=".793" stop-color="#D82D7E"/></radialGradient></defs></svg>