<svg width="48" height="48" fill="none" xmlns="http://www.w3.org/2000/svg"><rect width="48" height="48" rx="24" fill="#D028DE"/><path d="M24.366 39c-2.436 0-4.606-.33-6.508-.993-1.902-.654-3.51-1.616-4.824-2.887-1.314-1.263-2.315-2.807-3.003-4.633C9.344 28.662 9 26.585 9 24.257c0-2.298.344-4.382 1.031-6.254.695-1.871 1.708-3.476 3.037-4.815 1.33-1.347 2.952-2.381 4.87-3.104C19.863 9.361 22.056 9 24.516 9c2.276 0 4.308.33 6.096.993 1.795.662 3.315 1.605 4.56 2.83a12.016 12.016 0 0 1 2.854 4.347c.657 1.674.981 3.526.974 5.558.007 1.4-.115 2.685-.367 3.857-.252 1.171-.65 2.194-1.192 3.07a6.01 6.01 0 0 1-2.108 2.065c-.871.502-1.925.787-3.163.855-.886.069-1.604.004-2.154-.194-.55-.197-.97-.49-1.26-.878a3.211 3.211 0 0 1-.55-1.38h-.138c-.184.455-.543.87-1.077 1.243-.535.365-1.188.65-1.96.856a7.777 7.777 0 0 1-2.44.217 7.23 7.23 0 0 1-2.567-.628 6.516 6.516 0 0 1-2.143-1.586c-.62-.693-1.108-1.548-1.467-2.568-.351-1.02-.531-2.198-.539-3.537.008-1.324.195-2.476.562-3.458.374-.981.867-1.806 1.478-2.476a7.22 7.22 0 0 1 2.063-1.575 7.307 7.307 0 0 1 2.28-.73c.863-.13 1.68-.13 2.452 0s1.421.338 1.948.628c.535.289.867.6.997.935h.16v-1.278h3.587v11.137c.008.525.126.932.356 1.221.229.29.538.434.928.434.527 0 .966-.232 1.318-.696.359-.464.626-1.175.802-2.134.183-.958.275-2.18.275-3.663 0-1.43-.191-2.685-.573-3.765-.375-1.088-.902-2.013-1.582-2.773a8.324 8.324 0 0 0-2.349-1.872c-.894-.48-1.864-.83-2.91-1.05a15.406 15.406 0 0 0-3.209-.33c-1.902 0-3.564.288-4.984.867-1.421.57-2.605 1.373-3.553 2.407a10.172 10.172 0 0 0-2.131 3.64c-.466 1.385-.703 2.895-.71 4.53.007 1.804.26 3.401.756 4.794.504 1.384 1.245 2.548 2.223 3.491.978.944 2.185 1.659 3.62 2.146 1.437.486 3.087.73 4.951.73.879 0 1.738-.065 2.578-.194.84-.122 1.6-.274 2.28-.456.68-.175 1.227-.347 1.64-.514l1.134 3.31c-.482.273-1.135.528-1.96.764a19.01 19.01 0 0 1-2.773.582 21.497 21.497 0 0 1-3.163.228Zm-.527-10.316c.932 0 1.673-.178 2.224-.536.557-.358.954-.886 1.191-1.586.245-.708.36-1.579.344-2.613-.008-.913-.126-1.685-.355-2.317-.222-.639-.608-1.122-1.158-1.449-.542-.335-1.298-.502-2.268-.502-.849 0-1.57.179-2.166.536a3.507 3.507 0 0 0-1.352 1.507c-.306.639-.463 1.392-.47 2.259a7.12 7.12 0 0 0 .39 2.293 3.718 3.718 0 0 0 1.248 1.746c.581.442 1.372.662 2.372.662Z" fill="#fff"/></svg>