<svg xmlns="http://www.w3.org/2000/svg" width="48" height="48" fill="none"><rect width="48" height="48" fill="#D028DE" rx="24"/><path fill="#fff" d="M24.35 38.358c-2.333 0-4.41-.316-6.23-.95-1.821-.626-3.36-1.547-4.618-2.764-1.258-1.208-2.216-2.686-2.874-4.434-.658-1.748-.987-3.736-.987-5.964 0-2.2.329-4.195.987-5.986.665-1.792 1.634-3.328 2.907-4.61 1.272-1.289 2.826-2.279 4.661-2.97 1.843-.692 3.942-1.038 6.296-1.038 2.18 0 4.125.316 5.836.95 1.718.633 3.174 1.536 4.366 2.709a11.501 11.501 0 0 1 2.73 4.161c.63 1.603.94 3.376.933 5.32.007 1.34-.11 2.57-.35 3.692-.242 1.122-.622 2.101-1.142 2.938a5.753 5.753 0 0 1-2.018 1.978c-.834.48-1.843.753-3.027.819-.849.065-1.536.003-2.063-.186-.526-.19-.928-.47-1.206-.841a3.074 3.074 0 0 1-.527-1.322h-.131c-.176.437-.52.834-1.031 1.19-.512.35-1.137.623-1.876.82-.731.19-1.51.259-2.336.208a6.92 6.92 0 0 1-2.457-.601 6.236 6.236 0 0 1-2.052-1.518c-.592-.663-1.06-1.482-1.403-2.458-.337-.976-.509-2.105-.516-3.386.007-1.267.186-2.37.537-3.31.359-.94.83-1.73 1.415-2.37a6.913 6.913 0 0 1 1.975-1.508 6.996 6.996 0 0 1 2.183-.699 7.458 7.458 0 0 1 2.347 0c.739.124 1.36.324 1.865.601.511.277.83.575.954.896h.153V16.5h3.434v10.661c.007.503.12.892.34 1.169.22.277.515.415.888.415.505 0 .925-.222 1.262-.666.343-.444.6-1.125.767-2.043.176-.917.264-2.086.264-3.506 0-1.37-.183-2.57-.549-3.605-.358-1.041-.863-1.926-1.513-2.654a7.97 7.97 0 0 0-2.249-1.791 10.405 10.405 0 0 0-2.786-1.005 14.745 14.745 0 0 0-3.071-.317c-1.821 0-3.412.277-4.772.83-1.36.546-2.493 1.314-3.4 2.305a9.738 9.738 0 0 0-2.04 3.484c-.447 1.326-.673 2.771-.68 4.337.007 1.726.248 3.255.724 4.587.482 1.326 1.191 2.44 2.127 3.343.937.903 2.092 1.587 3.467 2.053 1.374.466 2.954.7 4.738.7.841 0 1.664-.062 2.468-.186a18.915 18.915 0 0 0 2.183-.437c.65-.168 1.174-.331 1.569-.492l1.085 3.168c-.46.262-1.085.506-1.875.732-.783.233-1.668.419-2.655.557-.98.146-1.989.218-3.027.218Zm-.505-9.874c.892 0 1.602-.171 2.128-.514.534-.342.914-.848 1.141-1.518.234-.677.344-1.51.33-2.501-.008-.874-.122-1.613-.341-2.218-.212-.611-.581-1.074-1.108-1.387-.519-.32-1.243-.48-2.172-.48-.811 0-1.502.17-2.073.513a3.358 3.358 0 0 0-1.294 1.442c-.293.611-.442 1.332-.45 2.163.008.771.132 1.503.373 2.195a3.56 3.56 0 0 0 1.196 1.671c.556.423 1.312.634 2.27.634Z"/></svg>