<svg xmlns="http://www.w3.org/2000/svg" width="62" height="62" fill="none"><path fill="#fff" fill-opacity=".85" d="M31 61.97c4.235 0 8.221-.81 11.96-2.43a31.682 31.682 0 0 0 9.892-6.714 31.666 31.666 0 0 0 6.717-9.888C61.188 39.202 62 35.218 62 30.985s-.81-8.217-2.431-11.954a31.668 31.668 0 0 0-6.717-9.887 31.636 31.636 0 0 0-9.908-6.714C39.196.81 35.204 0 30.97 0c-4.235 0-8.221.81-11.96 2.43a31.506 31.506 0 0 0-9.877 6.714A31.8 31.8 0 0 0 2.43 19.03C.811 22.768 0 26.752 0 30.985s.81 8.217 2.431 11.953a31.67 31.67 0 0 0 6.717 9.888 31.685 31.685 0 0 0 9.893 6.713c3.738 1.62 7.724 2.43 11.959 2.43Zm0-5.164c-3.586 0-6.94-.669-10.06-2.005a25.987 25.987 0 0 1-8.22-5.544 25.766 25.766 0 0 1-5.532-8.217c-1.327-3.119-1.99-6.47-1.99-10.055-.001-3.585.663-6.936 1.99-10.055a26.07 26.07 0 0 1 5.516-8.232 25.481 25.481 0 0 1 8.206-5.544c3.12-1.327 6.473-1.99 10.06-1.99 3.586 0 6.94.663 10.06 1.99a25.835 25.835 0 0 1 8.236 5.544 26.028 26.028 0 0 1 5.561 8.232c1.338 3.119 2.006 6.47 2.006 10.055 0 3.584-.663 6.936-1.99 10.055a25.77 25.77 0 0 1-5.532 8.217c-2.36 2.36-5.106 4.207-8.236 5.544-3.13 1.336-6.489 2.005-10.075 2.005ZM20.606 43.835c.709 0 1.297-.254 1.763-.76l8.6-8.627 8.662 8.627c.487.506 1.064.76 1.733.76a2.32 2.32 0 0 0 1.717-.73 2.39 2.39 0 0 0 .714-1.731c0-.668-.243-1.246-.73-1.732l-8.63-8.627 8.661-8.688c.486-.486.73-1.053.73-1.7a2.34 2.34 0 0 0-.715-1.717 2.342 2.342 0 0 0-1.717-.714c-.628 0-1.185.253-1.671.76l-8.753 8.657-8.662-8.627c-.446-.486-1.013-.73-1.702-.73-.669 0-1.241.234-1.717.7a2.29 2.29 0 0 0-.715 1.7c0 .669.244 1.236.73 1.702l8.631 8.657-8.631 8.658a2.267 2.267 0 0 0-.73 1.701c0 .668.239 1.245.715 1.731s1.048.73 1.717.73Z"/></svg>