<svg width="30" height="30" viewBox="0 0 30 30" fill="none" xmlns="http://www.w3.org/2000/svg">
<path d="M15.6942 26.4716C15.4079 26.7932 15.008 26.991 14.5788 27.0234C13.6657 27.0207 12.9261 26.2811 12.9234 25.368L12.9233 5.43245C12.9538 4.51595 13.7213 3.79763 14.6378 3.82806C15.4666 3.85559 16.1481 4.49031 16.2342 5.31507L16.2342 25.368C16.2019 25.7914 16.0087 26.1863 15.6942 26.4716Z" fill="#E72599"/>
<path d="M25.649 16.5151C25.3397 16.8218 24.9223 16.9948 24.4867 16.9965L4.55111 16.9965C3.63689 16.9257 2.95306 16.1272 3.02377 15.213C3.08691 14.397 3.73517 13.7487 4.55111 13.6856L24.5454 13.627C25.4619 13.5968 26.2293 14.3153 26.2595 15.2318C26.2607 15.2682 26.2607 15.3047 26.2595 15.3411C26.2275 15.8001 26.0064 16.2253 25.649 16.5151Z" fill="#E72599"/>
</svg>
