<svg width="48" height="48" fill="none" xmlns="http://www.w3.org/2000/svg"><g clip-path="url(#a)"><path d="M12.171 47.83c-2.854-.13-4.405-.605-5.436-1.007-1.367-.532-2.341-1.165-3.367-2.19-1.026-1.024-1.66-1.998-2.19-3.365-.402-1.031-.877-2.582-1.007-5.437C.03 32.746 0 31.82 0 24.002c0-7.817.031-8.742.17-11.83.13-2.855.607-4.403 1.007-5.437.532-1.367 1.167-2.341 2.19-3.368 1.024-1.025 1.998-1.66 3.366-2.19C7.765.775 9.316.3 12.17.17 15.257.029 16.184 0 24 0c7.817 0 8.741.031 11.83.17 2.855.13 4.402.607 5.437 1.007 1.366.53 2.34 1.165 3.366 2.19 1.026 1.024 1.658 2 2.19 3.366.402 1.032.877 2.583 1.007 5.437.142 3.089.17 4.013.17 11.83 0 7.816-.029 8.743-.17 11.831-.13 2.855-.608 4.406-1.007 5.437-.532 1.367-1.165 2.341-2.19 3.365-1.024 1.025-2 1.658-3.366 2.19-1.032.402-2.583.877-5.437 1.007-3.086.142-4.013.17-11.83.17-7.816 0-8.743-.027-11.829-.17Z" fill="url(#b)"/><path d="M19.334 24a4.667 4.667 0 1 1 9.334-.001 4.667 4.667 0 0 1-9.334.001Zm-2.523 0a7.189 7.189 0 1 0 14.378 0 7.189 7.189 0 0 0-14.377 0m12.982-7.474a1.68 1.68 0 1 0 1.681-1.68 1.68 1.68 0 0 0-1.68 1.68Zm-11.45 18.87c-1.365-.062-2.107-.29-2.6-.482a4.352 4.352 0 0 1-1.61-1.047 4.32 4.32 0 0 1-1.047-1.61c-.192-.492-.42-1.234-.482-2.6-.068-1.475-.081-1.918-.081-5.657 0-3.738.014-4.18.081-5.657.062-1.365.291-2.106.482-2.6a4.351 4.351 0 0 1 1.047-1.61c.49-.491.956-.794 1.61-1.048.493-.192 1.235-.42 2.6-.481 1.476-.068 1.92-.082 5.657-.082s4.18.015 5.657.082c1.365.062 2.106.291 2.6.481.654.254 1.12.558 1.61 1.048.491.49.794.956 1.048 1.61.192.493.42 1.235.482 2.6.068 1.477.081 1.919.081 5.657 0 3.74-.013 4.181-.081 5.658-.063 1.365-.291 2.107-.482 2.6a4.338 4.338 0 0 1-1.047 1.61c-.49.488-.957.792-1.61 1.046-.493.193-1.236.42-2.6.482-1.476.068-1.92.081-5.658.081-3.74 0-4.181-.013-5.657-.081m-.116-25.311c-1.49.068-2.509.304-3.398.65a6.87 6.87 0 0 0-2.48 1.615 6.835 6.835 0 0 0-1.615 2.48c-.346.89-.582 1.908-.65 3.398C10.015 19.721 10 20.198 10 24c0 3.802.016 4.28.085 5.772.068 1.49.304 2.508.65 3.398.357.92.836 1.703 1.615 2.48a6.879 6.879 0 0 0 2.48 1.615c.891.346 1.908.582 3.398.65 1.494.068 1.97.085 5.773.085 3.802 0 4.279-.016 5.772-.085 1.49-.068 2.508-.304 3.398-.65.92-.358 1.7-.837 2.48-1.615a6.858 6.858 0 0 0 1.615-2.48c.346-.89.584-1.908.65-3.398.068-1.494.084-1.97.084-5.772 0-3.802-.016-4.28-.084-5.772-.067-1.49-.304-2.509-.65-3.398a6.886 6.886 0 0 0-1.615-2.48 6.85 6.85 0 0 0-2.479-1.615c-.89-.346-1.909-.583-3.398-.65-1.493-.068-1.97-.085-5.772-.085-3.801 0-4.28.016-5.773.085" fill="#fff"/></g><defs><radialGradient id="b" cx="0" cy="0" r="1" gradientUnits="userSpaceOnUse" gradientTransform="translate(3.107 46.949) scale(60.9422)"><stop offset=".09" stop-color="#FA8F21"/><stop offset=".78" stop-color="#D82D7E"/></radialGradient><clipPath id="a"><path d="M0 24C0 10.745 10.745 0 24 0s24 10.745 24 24-10.745 24-24 24S0 37.255 0 24Z" fill="#fff"/></clipPath></defs></svg>