<svg xmlns="http://www.w3.org/2000/svg" width="80" height="80" fill="none"><g fill="#fff" clip-path="url(#a)"><path d="m67.863 48.734-.367.198c-1.596-1.917-4.346-2.656-6.441-1.594l-.023.012-.903.487a7.063 7.063 0 0 0-8.069-.716l-4.975 2.705h-6.621a9.54 9.54 0 0 1-4.131-.947l-.912-.44a15.682 15.682 0 0 0-16.32 1.593 1.05 1.05 0 0 0-.066.054l-2.202 1.96a7.607 7.607 0 0 1-2.835 1.59l-1.242-4.072a1.026 1.026 0 0 0-.982-.727H1.124a1.025 1.025 0 0 0-1.019 1.151l3.55 29.11c.063.515.5.902 1.02.902h15.974a1.026 1.026 0 0 0 .982-1.326l-2.092-6.861 6.513-4.116a3.901 3.901 0 0 1 2.843-.368l.064.014 13.296 2.448c3.62.648 7.353.12 10.652-1.504a.99.99 0 0 0 .126-.074l22.995-15.789c.448-.307.579-.91.299-1.375a6.346 6.346 0 0 0-8.464-2.315Zm-5.869.43c1.181-.591 2.665-.118 3.628.78l-8.678 4.681-.476.25a7.61 7.61 0 0 0-1.16-2.108l6.686-3.603Zm-8.94-.245.024-.014a5.006 5.006 0 0 1 5.04.016l-4.36 2.349a7.566 7.566 0 0 0-2.736-1.247l2.032-1.104ZM5.584 77.947l-3.3-27.056h8.73l8.248 27.056H5.583ZM51.93 66.479a15.177 15.177 0 0 1-9.309 1.292l-13.26-2.441a5.941 5.941 0 0 0-4.383.617l-6.06 3.831-4.322-14.175a9.66 9.66 0 0 0 3.602-2.022l2.17-1.932a13.635 13.635 0 0 1 14.16-1.361l.91.441a11.617 11.617 0 0 0 5.025 1.151h8.845a5.559 5.559 0 0 1 5.444 4.47l-6.366-.288a38.41 38.41 0 0 0-6.983.323 1.027 1.027 0 1 0 .281 2.034 36.429 36.429 0 0 1 6.609-.306l7.544.343.047.001c.567 0 1.027-.46 1.027-1.027a7.34 7.34 0 0 0-.016-.457l1.015-.535 10.928-5.895a4.296 4.296 0 0 1 5.142.799L51.93 66.479ZM8.172 39.754a2.74 2.74 0 0 0 2.737 2.738H65.66a2.738 2.738 0 0 0 0-5.475h-.684V17.126c0-2.098-1.7-3.797-3.797-3.797h-.003l-9.888.01V9.695a3.84 3.84 0 0 0 2.07-5.828L51.036.45a1.027 1.027 0 0 0-1.698 0l-2.324 3.418a3.827 3.827 0 0 0 2.222 5.867v3.605l-9.924.01V9.696a3.813 3.813 0 0 0 1.61-.96 3.84 3.84 0 0 0 .459-4.868L39.057.45a1.027 1.027 0 0 0-1.699 0l-2.323 3.418a3.827 3.827 0 0 0 2.223 5.867v3.617l-9.923.01V9.695a3.812 3.812 0 0 0 1.608-.96 3.84 3.84 0 0 0 .46-4.868L27.08.45a1.027 1.027 0 0 0-1.698 0l-2.323 3.418a3.827 3.827 0 0 0 2.223 5.867v3.629l-9.895.009a3.802 3.802 0 0 0-3.793 3.797v19.848h-.685a2.74 2.74 0 0 0-2.737 2.736ZM48.71 5.022l1.474-2.169 1.475 2.17a1.783 1.783 0 1 1-2.95 0v-.001Zm-11.977 0 1.475-2.169 1.474 2.169a1.784 1.784 0 1 1-2.949 0Zm-11.977 0 1.475-2.169 1.474 2.169a1.784 1.784 0 1 1-2.948 0Zm41.587 34.732a.684.684 0 0 1-.684.685H10.91a.684.684 0 0 1 0-1.369h54.75c.378 0 .684.307.684.684ZM15.39 15.426l45.789-.044h.002c.962 0 1.743.78 1.743 1.744v1.33a4.75 4.75 0 0 1-8.327-.201 1.026 1.026 0 0 0-.913-.559h-.002c-.384 0-.736.215-.912.556a4.752 4.752 0 0 1-8.45-.017 1.026 1.026 0 0 0-1.816.018 4.751 4.751 0 0 1-8.454-.025 1.027 1.027 0 0 0-1.811.022 4.75 4.75 0 0 1-8.44 0 1.026 1.026 0 0 0-1.825.002 4.75 4.75 0 0 1-8.326.204V17.17c0-.963.78-1.743 1.742-1.744Zm-1.742 6.069a6.78 6.78 0 0 0 4.106 1.378 6.776 6.776 0 0 0 5.133-2.334 6.78 6.78 0 0 0 5.132 2.333 6.78 6.78 0 0 0 5.133-2.333 6.777 6.777 0 0 0 5.133 2.334 6.778 6.778 0 0 0 5.133-2.334 6.81 6.81 0 0 0 10.266 0 6.806 6.806 0 0 0 9.24.956v15.522H13.647V21.495Z"/></g><defs><clipPath id="a"><path fill="#fff" d="M0 0h80v80H0z"/></clipPath></defs></svg>