<svg xmlns="http://www.w3.org/2000/svg" width="80" height="80" fill="none"><g clip-path="url(#a)"><path fill="#F1F1F1" d="M69.417 42.167h-50a6.174 6.174 0 0 0-6.167 6.166c0 3.4 2.766 6.167 6.167 6.167h9.89a1.333 1.333 0 0 0 0-2.667h-9.89c-1.93 0-3.5-1.57-3.5-3.5s1.57-3.5 3.5-3.5h50c1.93 0 3.5 1.57 3.5 3.5s-1.57 3.5-3.5 3.5H52.184l-1.976-4.017a1.333 1.333 0 1 0-2.393 1.177l7.245 14.73a1.334 1.334 0 1 0 2.393-1.178L53.495 54.5h13.22l-2.769 18.884a4.645 4.645 0 0 1-4.57 3.95H29.67a4.646 4.646 0 0 1-4.571-3.95l-1.937-13.216a1.333 1.333 0 1 0-2.639.386l1.938 13.216c.52 3.552 3.62 6.23 7.209 6.23h29.706c3.589 0 6.688-2.678 7.209-6.23l2.824-19.27a6.173 6.173 0 0 0 6.174-6.167c0-3.4-2.766-6.166-6.166-6.166Z"/><path fill="#FCFCFC" d="M40.101 47.197a1.334 1.334 0 0 0-1.773.64l-6.912 14.73A1.335 1.335 0 0 0 33.83 63.7l4.317-9.2h7.06a1.333 1.333 0 0 0 0-2.667h-5.809l1.344-2.863a1.333 1.333 0 0 0-.64-1.773Z"/><path fill="#fff" d="M5.75 2.667h31.704c1.388 0 2.697.736 3.418 1.922l2.174 3.578H31.084c-.984 0-1.93.36-2.664 1.016a1.333 1.333 0 1 0 1.776 1.989 1.33 1.33 0 0 1 .888-.339H58.67a10.243 10.243 0 0 0 4.033 6.924c.24.181.522.269.802.269 1.279 0 1.82-1.632.803-2.399a7.604 7.604 0 0 1-2.943-4.794h4.885c.736 0 1.334.598 1.334 1.333v12.92a10.24 10.24 0 0 0-6.94 4.054 1.333 1.333 0 1 0 2.134 1.6 7.61 7.61 0 0 1 6.139-3.073c.736 0 1.333-.597 1.333-1.334V12.167c0-2.206-1.794-4-4-4H46.167L43.15 3.204A6.705 6.705 0 0 0 37.454 0H5.75a1.333 1.333 0 0 0 0 2.667Z"/><path fill="#fff" d="M21.584 27.5h5.5v5.167c0 2.205 1.794 4 4 4H66.25a3.993 3.993 0 0 0 3.685-2.443 1.333 1.333 0 1 0-2.456-1.039A1.331 1.331 0 0 1 66.25 34H38.663a10.293 10.293 0 0 0-1.45-4.091 1.333 1.333 0 1 0-2.268 1.401c.51.826.85 1.74 1.018 2.69h-4.88a1.335 1.335 0 0 1-1.333-1.333V27.5h3.945c3.364 0 6.175-2.689 6.265-5.994a6.163 6.163 0 0 0-6.164-6.34h-9.879a1.333 1.333 0 0 0 0 2.667h9.879a3.497 3.497 0 0 1 3.498 3.6c-.051 1.875-1.666 3.4-3.599 3.4H21.584a6.674 6.674 0 0 1-6.667-6.666c0-.737-.597-1.334-1.333-1.334H5.75a1.333 1.333 0 0 0 0 2.667h6.595c.65 4.517 4.545 8 9.239 8Z"/><path fill="#fff" d="M45.526 25.557a1.334 1.334 0 0 0-1.886 1.886c2.818 2.817 7.402 2.817 10.22 0 2.817-2.818 2.817-7.402 0-10.22-2.818-2.816-7.402-2.816-10.22 0a1.333 1.333 0 0 0 1.886 1.887 4.564 4.564 0 0 1 6.448 0 4.564 4.564 0 0 1 0 6.447 4.564 4.564 0 0 1-6.448 0Z"/></g><defs><clipPath id="a"><path fill="#fff" d="M0 0h80v80H0z"/></clipPath></defs></svg>