<svg width="80" height="80" fill="none" xmlns="http://www.w3.org/2000/svg"><g clip-path="url(#a)" fill-opacity=".7"><path d="M54.063 49.844c-.863 0-1.563.7-1.563 1.562v10.782c0 4.307-3.505 7.812-7.813 7.812h-16.87c-.862 0-1.561.699-1.562 1.561l-.002 3.107-3.73-3.73A1.563 1.563 0 0 0 21.09 70H10.938c-4.308 0-7.813-3.505-7.813-7.813V38.126c0-4.308 3.505-7.813 7.813-7.813h15.78a1.562 1.562 0 0 0 0-3.125h-15.78C4.907 27.188 0 32.094 0 38.126v24.063c0 6.03 4.907 10.937 10.938 10.937h9.352l6.418 6.417a1.562 1.562 0 0 0 2.667-1.103l.004-5.314h15.308c6.031 0 10.938-4.907 10.938-10.938v-10.78c0-.864-.7-1.563-1.563-1.563Z" fill="url(#b)"/><path d="M57.29 0h-3.955c-12.522 0-22.71 10.188-22.71 22.71 0 12.523 10.188 22.71 22.71 22.71h3.955c1.954 0 3.889-.248 5.764-.738l5.841 5.838a1.562 1.562 0 0 0 2.668-1.105v-9.04a22.927 22.927 0 0 0 5.97-7.36A22.467 22.467 0 0 0 80 22.71C80 10.188 69.812 0 57.29 0Zm11.77 38.365a1.563 1.563 0 0 0-.623 1.248v6.031l-3.823-3.821a1.563 1.563 0 0 0-1.564-.389c-1.86.572-3.797.862-5.76.862h-3.955c-10.8 0-19.585-8.786-19.585-19.586 0-10.8 8.786-19.585 19.585-19.585h3.955c10.8 0 19.585 8.786 19.585 19.585 0 6.208-2.848 11.914-7.815 15.655Z" fill="url(#c)"/><path d="M62.349 17.097c-.225-3.271-2.862-5.908-6.134-6.133a6.564 6.564 0 0 0-4.978 1.762 6.639 6.639 0 0 0-2.102 4.837 1.563 1.563 0 0 0 3.125 0c0-.978.394-1.884 1.11-2.552a3.492 3.492 0 0 1 5.862 2.301 3.475 3.475 0 0 1-2.715 3.657 2.957 2.957 0 0 0-2.33 2.898v3.754a1.563 1.563 0 0 0 3.125 0v-3.63c3.149-.76 5.261-3.64 5.037-6.894Z" fill="url(#d)"/><path d="M56.855 32.697a1.574 1.574 0 0 0-1.105-.458c-.41 0-.814.167-1.105.458-.29.29-.458.694-.458 1.104 0 .413.168.816.458 1.107.29.29.694.456 1.105.456.41 0 .814-.166 1.105-.456.29-.292.458-.694.458-1.107 0-.41-.168-.814-.458-1.104Z" fill="url(#e)"/><path d="M42.969 48.438H10a1.563 1.563 0 0 0 0 3.124h32.969a1.562 1.562 0 0 0 0-3.124Z" fill="url(#f)"/><path d="M44.073 57.645a1.574 1.574 0 0 0-1.104-.458c-.411 0-.814.168-1.105.458-.29.29-.458.694-.458 1.105 0 .41.167.814.458 1.105.29.29.694.458 1.105.458.41 0 .814-.168 1.104-.458.291-.29.458-.692.458-1.105 0-.41-.167-.814-.458-1.105Z" fill="url(#g)"/><path d="M36.823 57.188H10a1.563 1.563 0 0 0 0 3.124h26.823a1.562 1.562 0 1 0 0-3.124Z" fill="url(#h)"/><path d="M32.813 39.688H10a1.563 1.563 0 0 0 0 3.124h22.813a1.562 1.562 0 1 0 0-3.124Z" fill="url(#i)"/></g><defs><radialGradient id="b" cx="0" cy="0" r="1" gradientUnits="userSpaceOnUse" gradientTransform="matrix(62.92575 -43.24023 28.79924 41.91037 1.043 74.389)"><stop stop-color="#FA8F21"/><stop offset=".793" stop-color="#D82D7E"/></radialGradient><radialGradient id="c" cx="0" cy="0" r="1" gradientUnits="userSpaceOnUse" gradientTransform="rotate(-36.769 84.319 -24.685) scale(69.7271 47.7079)"><stop stop-color="#FA8F21"/><stop offset=".793" stop-color="#D82D7E"/></radialGradient><radialGradient id="d" cx="0" cy="0" r="1" gradientUnits="userSpaceOnUse" gradientTransform="rotate(-44.931 57.637 -46.09) scale(21.1409 15.0831)"><stop stop-color="#FA8F21"/><stop offset=".793" stop-color="#D82D7E"/></radialGradient><radialGradient id="e" cx="0" cy="0" r="1" gradientUnits="userSpaceOnUse" gradientTransform="rotate(-35.895 81.2 -66.22) scale(4.36391 2.95755)"><stop stop-color="#FA8F21"/><stop offset=".793" stop-color="#D82D7E"/></radialGradient><radialGradient id="f" cx="0" cy="0" r="1" gradientUnits="userSpaceOnUse" gradientTransform="matrix(40.83101 -2.55859 .22788 3.63662 9.114 51.23)"><stop stop-color="#FA8F21"/><stop offset=".793" stop-color="#D82D7E"/></radialGradient><radialGradient id="g" cx="0" cy="0" r="1" gradientUnits="userSpaceOnUse" gradientTransform="matrix(3.53515 -2.5586 1.73403 2.39588 41.465 59.98)"><stop stop-color="#FA8F21"/><stop offset=".793" stop-color="#D82D7E"/></radialGradient><radialGradient id="h" cx="0" cy="0" r="1" gradientUnits="userSpaceOnUse" gradientTransform="matrix(33.87862 -2.5586 .27416 3.6302 8.999 59.98)"><stop stop-color="#FA8F21"/><stop offset=".793" stop-color="#D82D7E"/></radialGradient><radialGradient id="i" cx="0" cy="0" r="1" gradientUnits="userSpaceOnUse" gradientTransform="matrix(29.34176 -2.5586 .31595 3.62334 8.924 42.48)"><stop stop-color="#FA8F21"/><stop offset=".793" stop-color="#D82D7E"/></radialGradient><clipPath id="a"><path fill="#fff" d="M0 0h80v80H0z"/></clipPath></defs></svg>