<svg xmlns="http://www.w3.org/2000/svg" width="80" height="80" fill="none"><g clip-path="url(#a)"><path fill="url(#b)" fill-opacity=".7" d="M5.51 61.973h44.068v4.7a3.821 3.821 0 0 0 3.816 3.816h22.79A3.82 3.82 0 0 0 80 66.673V20.889a3.82 3.82 0 0 0-3.816-3.817H66.54v-3.171a4.394 4.394 0 0 0-4.39-4.39H6.148a4.394 4.394 0 0 0-4.39 4.39v35.162c0 .653.146 1.3.429 1.889H1.25A1.25 1.25 0 0 0 0 52.202v4.26a5.517 5.517 0 0 0 5.51 5.51Zm0-2.5a3.014 3.014 0 0 1-3.01-3.01v-3.011h22.358v1.91a2.062 2.062 0 0 0 2.06 2.061H41.38a2.062 2.062 0 0 0 2.06-2.06v-1.911h6.138v6.02H5.51Zm21.848-6.021h13.583v1.471H27.358v-1.471Zm33.101-36.38h-7.065a3.82 3.82 0 0 0-3.816 3.817V47.37H7.84V15.593h52.62v1.48ZM77.5 20.89v45.784a1.318 1.318 0 0 1-1.316 1.316h-22.79a1.318 1.318 0 0 1-1.316-1.316V20.889a1.318 1.318 0 0 1 1.316-1.317h22.79A1.317 1.317 0 0 1 77.5 20.89ZM4.258 49.063V13.9a1.892 1.892 0 0 1 1.89-1.89h56.004a1.892 1.892 0 0 1 1.89 1.89v3.172h-1.083v-2.73a1.25 1.25 0 0 0-1.25-1.25H6.59a1.25 1.25 0 0 0-1.25 1.25V48.62a1.25 1.25 0 0 0 1.25 1.25h42.99v1.082H6.146a1.891 1.891 0 0 1-1.89-1.89Zm60.531 17.94a2.789 2.789 0 1 0 .002-5.578 2.789 2.789 0 0 0-.002 5.578Zm0-3.08a.29.29 0 1 1-.29.29.294.294 0 0 1 .29-.29Zm-1.25-42.671a1.249 1.249 0 0 1 1.248-1.25h.005a1.25 1.25 0 1 1-1.253 1.25Z"/></g><defs><radialGradient id="b" cx="0" cy="0" r="1" gradientTransform="matrix(90.5002 -49.92583 30.13074 54.6178 1.5 64.01)" gradientUnits="userSpaceOnUse"><stop stop-color="#FA8F21"/><stop offset=".793" stop-color="#D82D7E"/></radialGradient><clipPath id="a"><path fill="#fff" d="M0 0h80v80H0z"/></clipPath></defs></svg>