<svg width="55" height="28" fill="none" xmlns="http://www.w3.org/2000/svg"><path d="M4.531.766c.5 0 .985.24 1.453.718.48.47.933 1.11 1.36 1.922.427.802.823 1.74 1.187 2.813a43.275 43.275 0 0 1 1 3.375c.74.958 1.526 1.963 2.36 3.015.833 1.053 1.692 2.12 2.578 3.204a639.708 639.708 0 0 0 2.719 3.265 304.995 304.995 0 0 0 2.765 3.188c-.656-2.886-1.15-5.48-1.484-7.782-.334-2.302-.5-4.328-.5-6.078 0-1.26.12-2.364.36-3.312.25-.959.582-1.755 1-2.39.416-.647.905-1.131 1.468-1.454a3.58 3.58 0 0 1 1.812-.484c.48 0 .896.083 1.25.25.365.166.667.39.907.671.25.282.432.605.547.97.125.364.187.744.187 1.14 0 .531-.057 1.026-.172 1.484-.104.459-.219.86-.344 1.203a9.404 9.404 0 0 1-.515 1.125l-.61-.39c.042-.094.1-.23.172-.407.084-.187.162-.411.235-.671a8.63 8.63 0 0 0 .187-.907c.052-.343.078-.713.078-1.109 0-.646-.146-1.151-.437-1.516a1.393 1.393 0 0 0-1.157-.562c-.625 0-1.156.213-1.593.64-.427.417-.776 1-1.047 1.75-.26.74-.453 1.615-.578 2.625-.115 1-.172 2.079-.172 3.235 0 1.083.047 2.213.14 3.39.094 1.167.22 2.339.375 3.516.167 1.167.355 2.313.563 3.438.219 1.125.453 2.177.703 3.156l2.25 2.406-1.89 1.781a95.293 95.293 0 0 1-2.25-2.265 109.26 109.26 0 0 1-2.844-3.11 160.502 160.502 0 0 1-3.203-3.75 113.662 113.662 0 0 1-3.266-4.172c.104.594.172 1.225.203 1.891.042.656.063 1.38.063 2.172 0 1.448-.172 2.693-.516 3.734-.344 1.032-.792 1.886-1.344 2.563-.541.666-1.15 1.161-1.828 1.484-.667.313-1.328.469-1.984.469-.51 0-1-.088-1.469-.266a3.591 3.591 0 0 1-1.219-.78 3.908 3.908 0 0 1-.828-1.25C.995 24.203.891 23.634.891 23c0-.969.234-1.906.703-2.813a12.31 12.31 0 0 1 1.781-2.562l.61.313c-.209.312-.407.645-.594 1-.177.354-.339.718-.485 1.093-.135.365-.245.74-.328 1.125a5.388 5.388 0 0 0-.125 1.14c0 .48.073.918.219 1.313.156.386.36.72.61 1 .25.271.54.485.874.641.344.146.703.219 1.078.219.49 0 .985-.14 1.485-.422.51-.292.968-.75 1.375-1.375.416-.636.755-1.453 1.015-2.453.26-1.01.391-2.23.391-3.657 0-.822-.052-1.62-.156-2.39a14.809 14.809 0 0 0-.422-2.188 99.446 99.446 0 0 1-2.813-4.187C5.38 7.62 4.802 6.615 4.375 5.78c-.417-.843-.708-1.536-.875-2.078-.167-.542-.25-.99-.25-1.344 0-.562.13-.968.39-1.218.271-.25.568-.375.891-.375ZM4.22 1.875c0 .104.088.323.265.656.188.323.448.74.782 1.25a104.231 104.231 0 0 0 2.843 3.922A26.78 26.78 0 0 0 7.25 5.36a17.67 17.67 0 0 0-.922-1.968c-.312-.563-.625-1.006-.937-1.329-.313-.333-.6-.5-.86-.5-.208 0-.312.105-.312.313Zm22.25 23.688c0-.198.036-.386.11-.563a1.369 1.369 0 0 1 .765-.766c.177-.073.364-.109.562-.109.198 0 .386.037.563.11.177.072.328.177.453.312.135.125.24.276.312.453.073.177.11.365.11.563 0 .197-.037.385-.11.562a1.37 1.37 0 0 1-.766.766c-.176.072-.364.109-.562.109-.198 0-.385-.037-.562-.11a1.56 1.56 0 0 1-.469-.296 1.561 1.561 0 0 1-.297-.469 1.463 1.463 0 0 1-.11-.563Zm13.125-2.25c-.115.812-.282 1.505-.5 2.078-.219.562-.485 1.026-.797 1.39-.313.354-.672.61-1.078.766-.396.166-.834.25-1.313.25A3.374 3.374 0 0 1 34 27.203c-.583-.396-1.089-.984-1.516-1.765-.427-.782-.765-1.75-1.015-2.907-.24-1.156-.36-2.494-.36-4.015 0-1.594.151-3.141.453-4.641.313-1.5.75-2.906 1.313-4.219a18.835 18.835 0 0 1 2.047-3.594 14.263 14.263 0 0 1 2.672-2.796 11.791 11.791 0 0 1 3.203-1.813A9.99 9.99 0 0 1 44.39.797c1.073 0 2.052.161 2.937.484.886.323 1.646.771 2.281 1.344a5.91 5.91 0 0 1 1.47 2.031c.343.782.515 1.625.515 2.532 0 1.093-.151 2.114-.453 3.062a9.735 9.735 0 0 1-1.266 2.578 10.087 10.087 0 0 1-1.906 2.094 12.032 12.032 0 0 1-2.422 1.562c-.865.427-1.781.76-2.75 1a14.5 14.5 0 0 1-2.922.391 150.066 150.066 0 0 1-.11 3.297c-.03.885-.088 1.599-.171 2.14Zm-2.719-6.547c.052.02.115.041.188.062a2.956 2.956 0 0 0 .546.125c-.02-1.302-.047-2.495-.078-3.578-.02-1.094-.047-2.047-.078-2.86-.042-.947-.078-1.801-.11-2.562.074-.062.157-.114.25-.156.084-.042.183-.078.298-.11.114-.03.255-.046.422-.046.479 0 .864.088 1.156.265.291.167.437.453.437.86v4.625c0 1.364-.01 2.593-.031 3.687 1.365 0 2.599-.26 3.703-.781a8.81 8.81 0 0 0 2.844-2.078 9.51 9.51 0 0 0 1.812-3.016c.427-1.135.641-2.323.641-3.562 0-.792-.11-1.542-.328-2.25a5.179 5.179 0 0 0-.969-1.875 4.606 4.606 0 0 0-1.656-1.282c-.656-.323-1.432-.484-2.328-.484-.907 0-1.802.172-2.688.516-.875.343-1.713.859-2.515 1.546-.792.688-1.526 1.542-2.203 2.563-.667 1.02-1.25 2.214-1.75 3.578-.49 1.365-.876 2.896-1.157 4.594-.27 1.687-.406 3.547-.406 5.578 0 .875.042 1.73.125 2.563.094.822.245 1.557.453 2.203.208.635.484 1.146.828 1.53.354.386.792.579 1.313.579.281 0 .547-.057.797-.172.25-.114.468-.349.656-.703.187-.365.338-.88.453-1.547.115-.677.172-1.578.172-2.703 0-.708-.005-1.406-.016-2.094a136.42 136.42 0 0 1-.015-2.031 3.144 3.144 0 0 1-.407-.078 14.24 14.24 0 0 0-.297-.078 1.836 1.836 0 0 1-.234-.094l.172-.734Zm14.719 8.797c0-.198.036-.386.11-.563a1.369 1.369 0 0 1 .765-.766c.177-.073.364-.109.562-.109.198 0 .386.037.563.11.177.072.328.177.453.312.135.125.24.276.312.453.073.177.11.365.11.563 0 .197-.037.385-.11.562a1.37 1.37 0 0 1-.766.766c-.176.072-.364.109-.562.109-.198 0-.385-.037-.562-.11a1.56 1.56 0 0 1-.469-.296 1.561 1.561 0 0 1-.297-.469 1.463 1.463 0 0 1-.11-.563Z" fill="#000"/></svg>