<svg width="92" height="22" fill="none" xmlns="http://www.w3.org/2000/svg"><path d="M34.64 4.92h-4.986a.693.693 0 0 0-.684.585l-2.017 12.784c-.04.252.156.48.412.48h2.38a.693.693 0 0 0 .684-.586l.544-3.448a.692.692 0 0 1 .684-.585h1.578c3.285 0 5.18-1.59 5.675-4.739.223-1.377.01-2.46-.636-3.218-.708-.833-1.965-1.273-3.634-1.273Zm.575 4.67c-.272 1.788-1.64 1.788-2.96 1.788h-.753l.527-3.34a.415.415 0 0 1 .411-.352h.345c.9 0 1.75 0 2.188.514.262.306.342.76.242 1.39ZM49.543 9.531h-2.388a.416.416 0 0 0-.41.35l-.106.669-.167-.242c-.517-.75-1.67-1.001-2.82-1.001-2.638 0-4.891 1.998-5.33 4.8-.228 1.4.096 2.736.89 3.669.727.857 1.768 1.214 3.006 1.214 2.126 0 3.305-1.367 3.305-1.367l-.106.663a.415.415 0 0 0 .41.482h2.15c.342 0 .63-.248.684-.586l1.29-8.171a.414.414 0 0 0-.408-.48Zm-3.328 4.647c-.23 1.364-1.313 2.28-2.694 2.28-.693 0-1.247-.223-1.603-.644-.353-.419-.487-1.014-.375-1.678.215-1.352 1.316-2.297 2.676-2.297.678 0 1.229.225 1.592.65.364.43.508 1.028.404 1.689ZM62.258 9.531H59.86a.695.695 0 0 0-.574.304l-3.308 4.874-1.403-4.684a.695.695 0 0 0-.665-.494h-2.358a.416.416 0 0 0-.394.55l2.643 7.755-2.485 3.507a.415.415 0 0 0 .34.656h2.395c.228 0 .44-.11.57-.297l7.98-11.518a.415.415 0 0 0-.342-.653Z" fill="#253B80"/><path d="M70.202 4.92h-4.987c-.34 0-.63.248-.684.585l-2.016 12.784c-.04.252.155.48.41.48h2.559a.485.485 0 0 0 .478-.41l.572-3.624a.692.692 0 0 1 .684-.585h1.577c3.285 0 5.18-1.59 5.676-4.739.224-1.377.008-2.46-.637-3.218-.708-.833-1.964-1.273-3.632-1.273Zm.575 4.67c-.272 1.788-1.639 1.788-2.961 1.788h-.752l.529-3.34a.414.414 0 0 1 .41-.352h.344c.9 0 1.75 0 2.189.514.261.306.34.76.24 1.39ZM85.105 9.531h-2.386a.414.414 0 0 0-.41.35l-.106.669-.168-.242c-.516-.75-1.668-1.001-2.819-1.001-2.638 0-4.89 1.998-5.33 4.8-.227 1.4.096 2.736.89 3.669.728.857 1.768 1.214 3.007 1.214 2.125 0 3.304-1.367 3.304-1.367l-.106.663a.416.416 0 0 0 .41.482h2.15c.341 0 .631-.248.684-.586l1.291-8.171a.416.416 0 0 0-.411-.48Zm-3.328 4.647c-.23 1.364-1.313 2.28-2.694 2.28-.692 0-1.247-.223-1.603-.644-.353-.419-.486-1.014-.375-1.678.217-1.352 1.316-2.297 2.676-2.297.678 0 1.229.225 1.592.65.365.43.51 1.028.404 1.689ZM87.92 5.271 85.872 18.29c-.04.252.155.48.41.48h2.057a.692.692 0 0 0 .684-.586L91.042 5.4a.415.415 0 0 0-.41-.48H88.33a.416.416 0 0 0-.41.351Z" fill="#179BD7"/><path d="m6.249 21.253.38-2.422-.848-.02H1.725L4.543.942a.23.23 0 0 1 .229-.195h6.838c2.27 0 3.837.472 4.655 1.405.384.437.628.894.746 1.397.124.528.126 1.159.005 1.928l-.009.056v.493l.384.217c.323.171.58.367.776.592.328.374.54.85.63 1.413.093.58.062 1.269-.09 2.05-.175.898-.457 1.68-.84 2.32a4.772 4.772 0 0 1-1.33 1.458c-.507.36-1.11.634-1.792.809-.66.172-1.413.258-2.24.258h-.532c-.38 0-.75.138-1.04.383a1.61 1.61 0 0 0-.542.968l-.04.218-.674 4.269-.03.156c-.009.05-.022.075-.043.091a.113.113 0 0 1-.07.026H6.25Z" fill="#253B80"/><path d="M17.755 5.59c-.02.13-.044.264-.07.4-.902 4.63-3.987 6.23-7.928 6.23H7.751a.974.974 0 0 0-.963.825L5.761 19.56l-.29 1.846a.513.513 0 0 0 .506.594h3.558c.421 0 .78-.306.846-.722l.035-.18.67-4.252.043-.234a.856.856 0 0 1 .845-.723h.533c3.447 0 6.146-1.4 6.935-5.45.33-1.692.159-3.105-.713-4.098a3.403 3.403 0 0 0-.974-.751Z" fill="#179BD7"/><path d="M16.811 5.212a7.111 7.111 0 0 0-.877-.194 11.142 11.142 0 0 0-1.768-.13h-5.36a.85.85 0 0 0-.845.724l-1.14 7.221-.033.211a.974.974 0 0 1 .963-.825h2.006c3.94 0 7.026-1.6 7.928-6.23.027-.137.05-.27.07-.4a4.807 4.807 0 0 0-.944-.377Z" fill="#222D65"/><path d="M7.96 5.613a.852.852 0 0 1 .846-.723h5.36c.634 0 1.227.042 1.768.13a7.123 7.123 0 0 1 1.08.257c.266.088.513.192.741.312.268-1.71-.002-2.876-.927-3.93C15.808.496 13.968 0 11.612 0H4.774a.977.977 0 0 0-.966.826L.959 18.88c-.056.357.22.68.58.68h4.222l1.06-6.726 1.14-7.221Z" fill="#253B80"/></svg>