<svg width="15" height="20" fill="none" xmlns="http://www.w3.org/2000/svg"><path d="M7.5.775a.856.856 0 0 0-.625.24.83.83 0 0 0-.244.62v12.861l.098 2.91.546-.195-3.496-3.838-2.226-2.187a.752.752 0 0 0-.279-.176.977.977 0 0 0-.337-.059.806.806 0 0 0-.6.244.831.831 0 0 0-.24.606c0 .234.092.446.274.635l6.475 6.494c.097.097.202.17.312.22a.86.86 0 0 0 .693 0 .923.923 0 0 0 .303-.22l6.485-6.494a.909.909 0 0 0 .263-.635c0-.241-.08-.443-.239-.606a.806.806 0 0 0-.6-.244c-.118 0-.23.02-.337.059a.752.752 0 0 0-.279.176l-2.226 2.187-3.506 3.838.556.195.098-2.91V1.635a.83.83 0 0 0-.244-.62.856.856 0 0 0-.625-.24Z" fill="#fff"/></svg>