<svg width="12" height="20" viewBox="0 0 12 20" fill="none" xmlns="http://www.w3.org/2000/svg">
<path d="M11.0811 9.4185L2.02934 0.888523C1.87831 0.746124 1.67765 0.666687 1.46899 0.666687C1.26032 0.666687 1.05967 0.746124 0.908634 0.888523L0.898889 0.898161C0.825418 0.967194 0.766913 1.05029 0.726935 1.14239C0.686957 1.23449 0.666342 1.33367 0.666342 1.4339C0.666342 1.53412 0.686957 1.6333 0.726935 1.7254C0.766913 1.8175 0.825417 1.9006 0.898889 1.96963L9.42277 10.0016L0.898888 18.0304C0.825417 18.0994 0.766913 18.1825 0.726935 18.2746C0.686957 18.3667 0.666341 18.4659 0.666341 18.5661C0.666341 18.6664 0.686957 18.7656 0.726935 18.8577C0.766913 18.9498 0.825417 19.0328 0.898888 19.1019L0.908633 19.1115C1.05967 19.2539 1.26032 19.3334 1.46899 19.3334C1.67765 19.3334 1.87831 19.2539 2.02934 19.1115L11.0811 10.5815C11.1607 10.5065 11.2241 10.4163 11.2674 10.3163C11.3107 10.2164 11.333 10.1088 11.333 10C11.333 9.89127 11.3107 9.78366 11.2674 9.6837C11.2241 9.58374 11.1607 9.49352 11.0811 9.4185Z" fill="url(#paint0_radial_245_281)"/>
<defs>
<radialGradient id="paint0_radial_245_281" cx="0" cy="0" r="1" gradientUnits="userSpaceOnUse" gradientTransform="translate(1.79968 1.01669) rotate(67.5312) scale(22.8514 11.5157)">
<stop stop-color="#FA8F21"/>
<stop offset="0.793099" stop-color="#D82D7E"/>
</radialGradient>
</defs>
</svg>
