<svg width="12" height="20" fill="none" xmlns="http://www.w3.org/2000/svg"><path d="M11.081 9.418 2.03.889a.817.817 0 0 0-1.12 0l-.01.01a.739.739 0 0 0-.172.827c.04.092.098.176.172.245l8.524 8.032L.899 18.03a.738.738 0 0 0-.172.828.74.74 0 0 0 .172.244l.01.01a.817.817 0 0 0 1.12 0l9.052-8.53a.803.803 0 0 0 .186-.898.803.803 0 0 0-.186-.265Z" fill="url(#a)"/><defs><radialGradient id="a" cx="0" cy="0" r="1" gradientUnits="userSpaceOnUse" gradientTransform="matrix(8.73335 21.1167 -10.64152 4.40107 1.8 1.017)"><stop stop-color="#FA8F21"/><stop offset=".793" stop-color="#D82D7E"/></radialGradient></defs></svg>