<svg width="48" height="48" fill="none" xmlns="http://www.w3.org/2000/svg"><rect width="48" height="48" rx="24" fill="url(#a)"/><path d="M9.441 37.963 11.5 30.49a14.288 14.288 0 0 1-1.932-7.217c0-7.957 6.507-14.426 14.495-14.426 3.88 0 7.522 1.501 10.255 4.227a14.271 14.271 0 0 1 4.24 10.206c0 7.957-6.507 14.427-14.502 14.427h-.007c-2.426 0-4.81-.61-6.931-1.758L9.44 37.963Zm8.044-4.622.438.263a12.126 12.126 0 0 0 6.132 1.674h.007c6.64 0 12.048-5.376 12.048-11.99 0-3.204-1.251-6.214-3.524-8.484a11.986 11.986 0 0 0-8.524-3.515c-6.64-.007-12.048 5.37-12.048 11.984a11.9 11.9 0 0 0 1.842 6.38l.285.456-1.216 4.422 4.56-1.19Z" fill="#fff"/><path d="m9.95 37.457 1.988-7.216a13.812 13.812 0 0 1-1.878-6.961c.007-7.68 6.285-13.928 14.002-13.928 3.748 0 7.258 1.453 9.9 4.082a13.81 13.81 0 0 1 4.095 9.853c0 7.68-6.285 13.928-13.995 13.928h-.007c-2.343 0-4.644-.588-6.688-1.695L9.95 37.457Z" fill="url(#b)"/><path d="M9.441 37.963 11.5 30.49a14.288 14.288 0 0 1-1.932-7.217c0-7.957 6.507-14.426 14.495-14.426 3.88 0 7.522 1.501 10.255 4.227a14.271 14.271 0 0 1 4.24 10.206c0 7.957-6.507 14.427-14.502 14.427h-.007c-2.426 0-4.81-.61-6.931-1.758L9.44 37.963Zm8.044-4.622.438.263a12.126 12.126 0 0 0 6.132 1.674h.007c6.64 0 12.048-5.376 12.048-11.99 0-3.204-1.251-6.214-3.524-8.484a11.986 11.986 0 0 0-8.524-3.515c-6.64-.007-12.048 5.37-12.048 11.984a11.9 11.9 0 0 0 1.842 6.38l.285.456-1.216 4.422 4.56-1.19Z" fill="url(#c)"/><path fill-rule="evenodd" clip-rule="evenodd" d="M20.44 17.24c-.272-.602-.557-.616-.814-.623-.209-.007-.452-.007-.695-.007-.243 0-.633.09-.966.45-.334.36-1.266 1.232-1.266 3.01 0 1.771 1.3 3.487 1.481 3.73.18.242 2.51 3.999 6.188 5.445 3.059 1.204 3.684.962 4.345.9.66-.063 2.141-.872 2.447-1.717.299-.844.299-1.563.209-1.716-.09-.152-.334-.242-.696-.422-.361-.18-2.141-1.051-2.475-1.176-.334-.118-.577-.18-.813.18-.244.36-.939 1.17-1.147 1.412-.209.242-.424.27-.786.09-.361-.18-1.53-.561-2.913-1.793-1.078-.954-1.808-2.138-2.016-2.497-.209-.36-.02-.554.16-.734.16-.16.361-.422.542-.63.18-.207.243-.36.362-.601.118-.243.062-.45-.028-.63-.09-.173-.8-1.958-1.12-2.671Z" fill="#fff"/><defs><linearGradient id="a" x1="23.999" y1="47.998" x2="23.999" y2="-.002" gradientUnits="userSpaceOnUse"><stop stop-color="#20B038"/><stop offset="1" stop-color="#60D66A"/></linearGradient><linearGradient id="b" x1="24.003" y1="37.456" x2="24.003" y2="9.351" gradientUnits="userSpaceOnUse"><stop stop-color="#20B038"/><stop offset="1" stop-color="#60D66A"/></linearGradient><linearGradient id="c" x1="24.002" y1="37.96" x2="24.002" y2="8.847" gradientUnits="userSpaceOnUse"><stop stop-color="#F9F9F9"/><stop offset="1" stop-color="#fff"/></linearGradient></defs></svg>