<svg width="48" height="48" fill="none" xmlns="http://www.w3.org/2000/svg"><rect width="48" height="48" rx="24" fill="red"/><path d="M37.695 17.13a3.579 3.579 0 0 0-2.517-2.518C32.942 14 24 14 24 14s-8.941 0-11.176.588a3.652 3.652 0 0 0-2.518 2.541C9.719 19.365 9.719 24 9.719 24s0 4.659.588 6.87a3.579 3.579 0 0 0 2.518 2.518C15.084 34 24 34 24 34s8.941 0 11.177-.588a3.579 3.579 0 0 0 2.517-2.518c.588-2.235.588-6.87.588-6.87s.024-4.66-.588-6.895Z" fill="#fff"/><path d="M21.154 28.282 28.59 24l-7.436-4.282v8.564Z" fill="red"/></svg>